<svg height="500" viewBox="0 0 691.2 345.6" width="1000" xmlns="http://www.w3.org/2000/svg" xmlns:xlink="http://www.w3.org/1999/xlink"><defs><style>*{stroke-linecap:butt;stroke-linejoin:round}</style></defs><g id="figure_1"><path d="M0 345.6h691.2V0H0z" fill="#fff" id="patch_1"/><g id="axes_1"><path d="M47.72 300.76h627.30088V10.8H47.72z" fill="#fff" id="patch_2"/><path clip-path="url(#pf3aae1c65c)" d="M47.72-716.475961v1116.54055l61.879227-36.656183 61.879227-19.066675 10.514827-.773851 51.3644-12.072499 61.879226-7.852592 61.879227-9.115432 61.879227-14.324016 61.879227-11.67135 61.879227-7.739209 61.879227-4.772083 61.879227-4.360672v-14.439745l-61.879227-46.092387-61.879227-69.004937-61.879227-69.057852-61.879227-62.437227-61.879227-57.52285-61.879227-51.046461-61.879226-60.884842-51.3644-85.276385-10.514827-19.247848-61.879227-165.453834L47.72-716.475961z" fill="#59a14f" fill-opacity=".2" stroke="#59a14f" stroke-opacity=".2" id="PolyCollection_1"/><path clip-path="url(#pf3aae1c65c)" d="M47.72-627.36061V417.540116l61.879227-60.131748 61.879227-32.742441 10.514827-4.406371 51.3644-14.590342 61.879226-10.501092 61.879227-6.239826 61.879227-5.010889 61.879227-4.006311 61.879227-3.275967 61.879227-2.61468 61.879227-2.009795v-11.733899l-61.879227-2.986829-61.879227-4.482445-61.879227-7.038868-61.879227-11.70686-61.879227-20.080942-61.879227-36.546991-61.879226-68.577971-51.3644-98.773225L171.478454-17.3764l-61.879227-225.68295L47.72-627.36061z" fill="#4e79a7" fill-opacity=".2" stroke="#4e79a7" stroke-opacity=".2" id="PolyCollection_2"/><path clip-path="url(#pf3aae1c65c)" d="M109.599227-188.047916v538.243437l72.394054-33.735545 51.3644-13.545557 39.841323-7.260379 32.552731-3.344563 27.522942-2.597857 23.841457-2.644169 21.029656-1.068674 18.811668-1.209877 17.017223-1.534447 15.535508-1.397537 14.291282-1.452412 13.23166.272564 12.318381-2.1405 11.523076 1.312518v-26.882428l-11.523076-3.876593-12.318381-.58762-13.23166-2.725097-14.291282-3.236897-15.535508-2.944453-17.017223-1.869471-18.811668-7.712728-21.029656-6.858116-23.841457-10.515346-27.522942-13.031926-32.552731-20.507666-39.841323-44.430765-51.3644-85.444071-72.394054-237.273825z" fill="#f28e2b" fill-opacity=".2" stroke="#f28e2b" stroke-opacity=".2" id="PolyCollection_3"/><g id="matplotlib.axis_1"><g id="xtick_1"><g id="line2d_1"><defs><path d="M0 0v3.5" id="m0b67d9f72f" stroke="#000" stroke-width=".8"/></defs><use x="47.72" xlink:href="#m0b67d9f72f" y="300.76" stroke="#000" stroke-width=".8"/></g><g transform="matrix(.1 0 0 -.1 44.53875 315.358437)" id="text_1"><defs><path d="M1228 531h2203V0H469v531q359 372 979 998 621 627 780 809 303 340 423 576 121 236 121 464 0 372-261 606-261 235-680 235-297 0-627-103-329-103-704-313v638q381 153 712 231 332 78 607 78 725 0 1156-363 431-362 431-968 0-288-108-546-107-257-392-607-78-91-497-524-418-433-1181-1211z" id="DejaVuSans-32" transform="scale(.01563)"/></defs><use xlink:href="#DejaVuSans-32"/></g></g><g id="xtick_2"><use x="109.599227" xlink:href="#m0b67d9f72f" y="300.76" stroke="#000" stroke-width=".8" id="line2d_2"/><g transform="matrix(.1 0 0 -.1 106.417977 315.358437)" id="text_2"><defs><path d="M2419 4116 825 1625h1594v2491zm-166 550h794V1625h666v-525h-666V0h-628v1100H313v609l1940 2957z" id="DejaVuSans-34" transform="scale(.01563)"/></defs><use xlink:href="#DejaVuSans-34"/></g></g><g id="xtick_3"><use x="171.478454" xlink:href="#m0b67d9f72f" y="300.76" stroke="#000" stroke-width=".8" id="line2d_3"/><g transform="matrix(.1 0 0 -.1 168.297204 315.358437)" id="text_3"><defs><path d="M2034 2216q-450 0-708-241-257-241-257-662 0-422 257-663 258-241 708-241t709 242q260 243 260 662 0 421-258 662-257 241-711 241zm-631 268q-406 100-633 378-226 279-226 679 0 559 398 884 399 325 1092 325 697 0 1094-325t397-884q0-400-227-679-226-278-629-378 456-106 710-416 255-309 255-755 0-679-414-1042Q2806-91 2034-91q-771 0-1186 362-414 363-414 1042 0 446 256 755 257 310 713 416zm-231 997q0-362 226-565 227-203 636-203 407 0 636 203 230 203 230 565 0 363-230 566-229 203-636 203-409 0-636-203-226-203-226-566z" id="DejaVuSans-38" transform="scale(.01563)"/></defs><use xlink:href="#DejaVuSans-38"/></g></g><g id="xtick_4"><use x="233.357681" xlink:href="#m0b67d9f72f" y="300.76" stroke="#000" stroke-width=".8" id="line2d_4"/><g transform="matrix(.1 0 0 -.1 226.995181 315.358437)" id="text_4"><defs><path d="M794 531h1031v3560L703 3866v575l1116 225h631V531h1031V0H794v531z" id="DejaVuSans-31" transform="scale(.01563)"/><path d="M2113 2584q-425 0-674-291-248-290-248-796 0-503 248-796 249-292 674-292t673 292q248 293 248 796 0 506-248 796-248 291-673 291zm1253 1979v-575q-238 112-480 171-242 60-480 60-625 0-955-422-329-422-376-1275 184 272 462 417 279 145 613 145 703 0 1111-427 408-426 408-1160 0-719-425-1154Q2819-91 2113-91q-810 0-1238 620-428 621-428 1799 0 1106 525 1764t1409 658q238 0 480-47t505-140z" id="DejaVuSans-36" transform="scale(.01563)"/></defs><use xlink:href="#DejaVuSans-31"/><use x="63.623047" xlink:href="#DejaVuSans-36"/></g></g><g id="xtick_5"><use x="295.236907" xlink:href="#m0b67d9f72f" y="300.76" stroke="#000" stroke-width=".8" id="line2d_5"/><g transform="matrix(.1 0 0 -.1 288.874407 315.358437)" id="text_5"><defs><path d="M2597 2516q453-97 707-404 255-306 255-756 0-690-475-1069Q2609-91 1734-91q-293 0-604 58T488 141v609q262-153 574-231 313-78 654-78 593 0 904 234t311 681q0 413-289 645-289 233-804 233h-544v519h569q465 0 712 186t247 536q0 359-255 551-254 193-729 193-260 0-557-57-297-56-653-174v562q360 100 674 150t592 50q719 0 1137-327 419-326 419-882 0-388-222-655t-631-370z" id="DejaVuSans-33" transform="scale(.01563)"/></defs><use xlink:href="#DejaVuSans-33"/><use x="63.623047" xlink:href="#DejaVuSans-32"/></g></g><g id="xtick_6"><use x="357.116134" xlink:href="#m0b67d9f72f" y="300.76" stroke="#000" stroke-width=".8" id="line2d_6"/><g transform="matrix(.1 0 0 -.1 350.753634 315.358437)" id="text_6"><use xlink:href="#DejaVuSans-36"/><use x="63.623047" xlink:href="#DejaVuSans-34"/></g></g><g id="xtick_7"><use x="418.995361" xlink:href="#m0b67d9f72f" y="300.76" stroke="#000" stroke-width=".8" id="line2d_7"/><g transform="matrix(.1 0 0 -.1 409.451611 315.358437)" id="text_7"><use xlink:href="#DejaVuSans-31"/><use x="63.623047" xlink:href="#DejaVuSans-32"/><use x="127.246094" xlink:href="#DejaVuSans-38"/></g></g><g id="xtick_8"><use x="480.874588" xlink:href="#m0b67d9f72f" y="300.76" stroke="#000" stroke-width=".8" id="line2d_8"/><g transform="matrix(.1 0 0 -.1 471.330838 315.358437)" id="text_8"><defs><path d="M691 4666h2478v-532H1269V2991q137 47 274 70 138 23 276 23 781 0 1237-428 457-428 457-1159 0-753-469-1171Q2575-91 1722-91q-294 0-599 50Q819 9 494 109v635q281-153 581-228t634-75q541 0 856 284 316 284 316 772 0 487-316 771-315 285-856 285-253 0-505-56-251-56-513-175v2344z" id="DejaVuSans-35" transform="scale(.01563)"/></defs><use xlink:href="#DejaVuSans-32"/><use x="63.623047" xlink:href="#DejaVuSans-35"/><use x="127.246094" xlink:href="#DejaVuSans-36"/></g></g><g id="xtick_9"><use x="542.753815" xlink:href="#m0b67d9f72f" y="300.76" stroke="#000" stroke-width=".8" id="line2d_9"/><g transform="matrix(.1 0 0 -.1 533.210065 315.358437)" id="text_9"><use xlink:href="#DejaVuSans-35"/><use x="63.623047" xlink:href="#DejaVuSans-31"/><use x="127.246094" xlink:href="#DejaVuSans-32"/></g></g><g id="xtick_10"><use x="604.633042" xlink:href="#m0b67d9f72f" y="300.76" stroke="#000" stroke-width=".8" id="line2d_10"/><g transform="matrix(.1 0 0 -.1 591.908042 315.358437)" id="text_10"><defs><path d="M2034 4250q-487 0-733-480-245-479-245-1442 0-959 245-1439 246-480 733-480 491 0 736 480 246 480 246 1439 0 963-246 1442-245 480-736 480zm0 500q785 0 1199-621 414-620 414-1801 0-1178-414-1799Q2819-91 2034-91q-784 0-1198 620-414 621-414 1799 0 1181 414 1801 414 621 1198 621z" id="DejaVuSans-30" transform="scale(.01563)"/></defs><use xlink:href="#DejaVuSans-31"/><use x="63.623047" xlink:href="#DejaVuSans-30"/><use x="127.246094" xlink:href="#DejaVuSans-32"/><use x="190.869141" xlink:href="#DejaVuSans-34"/></g></g><g id="xtick_11"><use x="666.512269" xlink:href="#m0b67d9f72f" y="300.76" stroke="#000" stroke-width=".8" id="line2d_11"/><g transform="matrix(.1 0 0 -.1 653.787269 315.358437)" id="text_11"><use xlink:href="#DejaVuSans-32"/><use x="63.623047" xlink:href="#DejaVuSans-30"/><use x="127.246094" xlink:href="#DejaVuSans-34"/><use x="190.869141" xlink:href="#DejaVuSans-38"/></g></g><g transform="matrix(.1 0 0 -.1 308.02044 329.038125)" id="text_12"><defs><path d="M1172 4863h575l-550-2835 1972 1472h747L1716 1825 3322 0h-697L1131 1709 800 0H225l947 4863z" id="DejaVuSans-Oblique-6b" transform="scale(.01563)"/><path d="M3122 3366v-538q-244 135-489 202t-495 67q-560 0-870-355-309-354-309-995t309-996q310-354 870-354 250 0 495 67t489 202V134Q2881 22 2623-34q-257-57-548-57-791 0-1257 497-465 497-465 1341 0 856 470 1346 471 491 1290 491 265 0 518-55 253-54 491-163z" id="DejaVuSans-63" transform="scale(.01563)"/><path d="M2194 1759q-697 0-966-159t-269-544q0-306 202-486 202-179 548-179 479 0 768 339t289 901v128h-572zm1147 238V0h-575v531q-197-318-491-470T1556-91q-537 0-855 302-317 302-317 808 0 590 395 890 396 300 1180 300h807v57q0 397-261 614t-733 217q-300 0-585-72-284-72-546-216v532q315 122 612 182 297 61 578 61 760 0 1135-394 375-393 375-1193z" id="DejaVuSans-61" transform="scale(.01563)"/><path d="M603 4863h575V0H603v4863z" id="DejaVuSans-6c" transform="scale(.01563)"/><path d="M603 3500h575V0H603v3500zm0 1363h575v-729H603v729z" id="DejaVuSans-69" transform="scale(.01563)"/><path d="M3116 1747q0 634-261 995t-717 361q-457 0-718-361t-261-995q0-634 261-995t718-361q456 0 717 361t261 995zM1159 2969q182 312 458 463 277 152 661 152 638 0 1036-506 399-506 399-1331T3314 415Q2916-91 2278-91q-384 0-661 152-276 152-458 464V0H581v4863h578V2969z" id="DejaVuSans-62" transform="scale(.01563)"/><path d="M2631 2963q-97 56-211 82-114 27-251 27-488 0-749-317t-261-911V0H581v3500h578v-544q182 319 472 473 291 155 707 155 59 0 131-8 72-7 159-23l3-590z" id="DejaVuSans-72" transform="scale(.01563)"/><path d="M1172 4494v-994h1184v-447H1172V1153q0-428 117-550t477-122h590V0h-590q-666 0-919 248-253 249-253 905v1900H172v447h422v994h578z" id="DejaVuSans-74" transform="scale(.01563)"/><path d="M1959 3097q-462 0-731-361t-269-989q0-628 267-989 268-361 733-361 460 0 728 362 269 363 269 988 0 622-269 986-268 364-728 364zm0 487q750 0 1178-488 429-487 429-1349 0-859-429-1349Q2709-91 1959-91q-753 0-1180 489-426 490-426 1349 0 862 426 1349 427 488 1180 488z" id="DejaVuSans-6f" transform="scale(.01563)"/><path d="M3513 2113V0h-575v2094q0 497-194 743-194 247-581 247-466 0-735-297-269-296-269-809V0H581v3500h578v-544q207 316 486 472 280 156 646 156 603 0 912-373 310-373 310-1098z" id="DejaVuSans-6e" transform="scale(.01563)"/><path d="M2834 3397v-544q-243 125-506 187-262 63-544 63-428 0-642-131t-214-394q0-200 153-314t616-217l197-44q612-131 870-370t258-667q0-488-386-773Q2250-91 1575-91q-281 0-586 55T347 128v594q319-166 628-249 309-82 613-82 406 0 624 139 219 139 219 392 0 234-158 359-157 125-692 241l-200 47q-534 112-772 345-237 233-237 639 0 494 350 762 350 269 994 269 318 0 599-47 282-46 519-140z" id="DejaVuSans-73" transform="scale(.01563)"/><path d="M3328 2828q216 388 516 572t706 184q547 0 844-383 297-382 297-1088V0h-578v2094q0 503-179 746-178 244-543 244-447 0-707-297-259-296-259-809V0h-578v2094q0 506-178 748t-550 242q-441 0-701-298-259-298-259-808V0H581v3500h578v-544q197 322 472 475t653 153q382 0 649-194 267-193 395-562z" id="DejaVuSans-6d" transform="scale(.01563)"/><path d="M1159 525v-1856H581v4831h578v-531q182 312 458 463 277 152 661 152 638 0 1036-506 399-506 399-1331T3314 415Q2916-91 2278-91q-384 0-661 152-276 152-458 464zm1957 1222q0 634-261 995t-717 361q-457 0-718-361t-261-995q0-634 261-995t718-361q456 0 717 361t261 995z" id="DejaVuSans-70" transform="scale(.01563)"/><path d="M3597 1894v-281H953q38-594 358-905t892-311q331 0 642 81t618 244V178Q3153 47 2828-22t-659-69q-838 0-1327 487-489 488-489 1320 0 859 464 1363 464 505 1252 505 706 0 1117-455 411-454 411-1235zm-575 169q-6 471-264 752-258 282-683 282-481 0-770-272t-333-766l2050 4z" id="DejaVuSans-65" transform="scale(.01563)"/></defs><use transform="translate(0 .015625)" xlink:href="#DejaVuSans-Oblique-6b"/><use transform="translate(57.910156 .015625)" xlink:href="#DejaVuSans-20"/><use transform="translate(89.697266 .015625)" xlink:href="#DejaVuSans-63"/><use transform="translate(144.677734 .015625)" xlink:href="#DejaVuSans-61"/><use transform="translate(205.957031 .015625)" xlink:href="#DejaVuSans-6c"/><use transform="translate(233.740234 .015625)" xlink:href="#DejaVuSans-69"/><use transform="translate(261.523438 .015625)" xlink:href="#DejaVuSans-62"/><use transform="translate(325 .015625)" xlink:href="#DejaVuSans-72"/><use transform="translate(366.113281 .015625)" xlink:href="#DejaVuSans-61"/><use transform="translate(427.392578 .015625)" xlink:href="#DejaVuSans-74"/><use transform="translate(466.601562 .015625)" xlink:href="#DejaVuSans-69"/><use transform="translate(494.384766 .015625)" xlink:href="#DejaVuSans-6f"/><use transform="translate(555.566406 .015625)" xlink:href="#DejaVuSans-6e"/><use transform="translate(618.945312 .015625)" xlink:href="#DejaVuSans-20"/><use transform="translate(650.732422 .015625)" xlink:href="#DejaVuSans-73"/><use transform="translate(702.832031 .015625)" xlink:href="#DejaVuSans-61"/><use transform="translate(764.111328 .015625)" xlink:href="#DejaVuSans-6d"/><use transform="translate(861.523438 .015625)" xlink:href="#DejaVuSans-70"/><use transform="translate(925 .015625)" xlink:href="#DejaVuSans-6c"/><use transform="translate(952.783203 .015625)" xlink:href="#DejaVuSans-65"/><use transform="translate(1014.306641 .015625)" xlink:href="#DejaVuSans-73"/></g></g><g id="matplotlib.axis_2"><g id="ytick_1"><g id="line2d_34"><defs><path d="M0 0h-3.5" id="m7da3e08337" stroke="#000" stroke-width=".8"/></defs><use x="47.72" xlink:href="#m7da3e08337" y="271.764" stroke="#000" stroke-width=".8"/></g><g transform="matrix(.1 0 0 -.1 24.816875 275.563219)" id="text_13"><defs><path d="M684 794h660V0H684v794z" id="DejaVuSans-2e" transform="scale(.01563)"/></defs><use xlink:href="#DejaVuSans-32"/><use x="63.623047" xlink:href="#DejaVuSans-2e"/><use x="95.410156" xlink:href="#DejaVuSans-34"/></g></g><g id="ytick_2"><use x="47.72" xlink:href="#m7da3e08337" y="213.772" stroke="#000" stroke-width=".8" id="line2d_35"/><g transform="matrix(.1 0 0 -.1 24.816875 217.571219)" id="text_14"><use xlink:href="#DejaVuSans-32"/><use x="63.623047" xlink:href="#DejaVuSans-2e"/><use x="95.410156" xlink:href="#DejaVuSans-35"/></g></g><g id="ytick_3"><use x="47.72" xlink:href="#m7da3e08337" y="155.78" stroke="#000" stroke-width=".8" id="line2d_36"/><g transform="matrix(.1 0 0 -.1 24.816875 159.579219)" id="text_15"><use xlink:href="#DejaVuSans-32"/><use x="63.623047" xlink:href="#DejaVuSans-2e"/><use x="95.410156" xlink:href="#DejaVuSans-36"/></g></g><g id="ytick_4"><use x="47.72" xlink:href="#m7da3e08337" y="97.788" stroke="#000" stroke-width=".8" id="line2d_37"/><g transform="matrix(.1 0 0 -.1 24.816875 101.587219)" id="text_16"><defs><path d="M525 4666h3000v-269L1831 0h-659l1594 4134H525v532z" id="DejaVuSans-37" transform="scale(.01563)"/></defs><use xlink:href="#DejaVuSans-32"/><use x="63.623047" xlink:href="#DejaVuSans-2e"/><use x="95.410156" xlink:href="#DejaVuSans-37"/></g></g><g id="ytick_5"><use x="47.72" xlink:href="#m7da3e08337" y="39.796" stroke="#000" stroke-width=".8" id="line2d_38"/><g transform="matrix(.1 0 0 -.1 24.816875 43.595219)" id="text_17"><use xlink:href="#DejaVuSans-32"/><use x="63.623047" xlink:href="#DejaVuSans-2e"/><use x="95.410156" xlink:href="#DejaVuSans-38"/></g></g><g transform="matrix(0 -.1 -.1 0 18.737188 231.425313)" id="text_18"><defs><path d="M2906 1791q0 625-258 968-257 344-723 344-462 0-720-344-258-343-258-968 0-622 258-966t720-344q466 0 723 344 258 344 258 966zm575-1357q0-893-397-1329-396-436-1215-436-303 0-572 45t-522 139v559q253-137 500-202 247-66 503-66 566 0 847 295t281 892v285q-178-310-456-463T1784 0Q1141 0 747 490 353 981 353 1791q0 812 394 1302 394 491 1037 491 388 0 666-153t456-462v531h575V434z" id="DejaVuSans-67" transform="scale(.01563)"/><path d="M544 1381v2119h575V1403q0-497 193-746 194-248 582-248 465 0 735 297 271 297 271 810v1984h575V0h-575v538q-209-319-486-474-276-155-642-155-603 0-916 375-312 375-312 1097zm1447 2203z" id="DejaVuSans-75" transform="scale(.01563)"/><path d="M550 4863h1325v-447h-750V-397h750v-447H550v5707z" id="DejaVuSans-5b" transform="scale(.01563)"/><path d="M2906 2969v1894h575V0h-575v525q-181-312-458-464-276-152-664-152-634 0-1033 506-398 507-398 1332t398 1331q399 506 1033 506 388 0 664-152 277-151 458-463zM947 1747q0-634 261-995t717-361q456 0 718 361 263 361 263 995t-263 995q-262 361-718 361t-717-361q-261-361-261-995z" id="DejaVuSans-64" transform="scale(.01563)"/><path d="M1600 4347q-250 0-422-174-172-173-172-423 0-247 172-417t422-170q250 0 422 170t172 417q0 247-174 422-173 175-420 175zm0 403q200 0 384-77 185-76 319-220 144-140 216-319 72-178 72-384 0-412-289-698t-708-286q-422 0-704 281-281 281-281 703 0 419 287 709 288 291 704 291z" id="DejaVuSans-b0" transform="scale(.01563)"/><path d="M1947 4863V-844H622v447h747v4813H622v447h1325z" id="DejaVuSans-5d" transform="scale(.01563)"/></defs><use xlink:href="#DejaVuSans-6d"/><use x="97.412109" xlink:href="#DejaVuSans-65"/><use x="158.935547" xlink:href="#DejaVuSans-61"/><use x="220.214844" xlink:href="#DejaVuSans-6e"/><use x="283.59375" xlink:href="#DejaVuSans-20"/><use x="315.380859" xlink:href="#DejaVuSans-61"/><use x="376.660156" xlink:href="#DejaVuSans-6e"/><use x="440.039062" xlink:href="#DejaVuSans-67"/><use x="503.515625" xlink:href="#DejaVuSans-75"/><use x="566.894531" xlink:href="#DejaVuSans-6c"/><use x="594.677734" xlink:href="#DejaVuSans-61"/><use x="655.957031" xlink:href="#DejaVuSans-72"/><use x="697.070312" xlink:href="#DejaVuSans-20"/><use x="728.857422" xlink:href="#DejaVuSans-65"/><use x="790.380859" xlink:href="#DejaVuSans-72"/><use x="829.744141" xlink:href="#DejaVuSans-72"/><use x="868.607422" xlink:href="#DejaVuSans-6f"/><use x="929.789062" xlink:href="#DejaVuSans-72"/><use x="970.902344" xlink:href="#DejaVuSans-20"/><use x="1002.689453" xlink:href="#DejaVuSans-5b"/><use x="1041.703125" xlink:href="#DejaVuSans-64"/><use x="1105.179688" xlink:href="#DejaVuSans-65"/><use x="1166.703125" xlink:href="#DejaVuSans-67"/><use x="1230.179688" xlink:href="#DejaVuSans-72"/><use x="1269.042969" xlink:href="#DejaVuSans-65"/><use x="1330.566406" xlink:href="#DejaVuSans-65"/><use x="1392.089844" xlink:href="#DejaVuSans-20"/><use x="1423.876953" xlink:href="#DejaVuSans-b0"/><use x="1473.876953" xlink:href="#DejaVuSans-5d"/></g></g><g id="line2d_39"><path clip-path="url(#pf3aae1c65c)" d="m136.397284-1 35.08117 41.495612 10.514827 9.236999 51.3644 36.601942 61.879226 26.516126 61.879227 20.965514 61.879227 21.599417 61.879227 25.382938 61.879227 30.659322 61.879227 32.116427 61.879227 20.865858" fill="none" stroke="#59a14f" stroke-linecap="square" stroke-width="1.5"/><defs><path d="m0 3 3-6h-6z" id="m30f704a2cc" stroke="#59a14f" stroke-linejoin="miter"/></defs><g clip-path="url(#pf3aae1c65c)" fill="#59a14f" stroke="#59a14f" stroke-linejoin="miter"><use x="136.397284" xlink:href="#m30f704a2cc" y="-1"/><use x="171.478454" xlink:href="#m30f704a2cc" y="40.495612"/><use x="181.993281" xlink:href="#m30f704a2cc" y="49.732611"/><use x="233.357681" xlink:href="#m30f704a2cc" y="86.334553"/><use x="295.236907" xlink:href="#m30f704a2cc" y="112.850679"/><use x="357.116134" xlink:href="#m30f704a2cc" y="133.816193"/><use x="418.995361" xlink:href="#m30f704a2cc" y="155.41561"/><use x="480.874588" xlink:href="#m30f704a2cc" y="180.798548"/><use x="542.753815" xlink:href="#m30f704a2cc" y="211.45787"/><use x="604.633042" xlink:href="#m30f704a2cc" y="243.574297"/><use x="666.512269" xlink:href="#m30f704a2cc" y="264.440155"/></g></g><g id="line2d_40"><path clip-path="url(#pf3aae1c65c)" d="m87.389898-1 22.209329 58.174509 61.879227 96.470255 10.514827 11.526326 51.3644 42.091442 61.879226 29.038439 61.879227 15.153583 61.879227 7.535026 61.879227 3.850275 61.879227 1.88145 61.879227.933882 61.879227.488518" fill="none" stroke="#4e79a7" stroke-linecap="square" stroke-width="1.5"/><defs><path d="M-1.5 3 0 1.5 1.5 3 3 1.5 1.5 0 3-1.5 1.5-3 0-1.5-1.5-3-3-1.5-1.5 0-3 1.5z" id="m3495ba6f44" stroke="#4e79a7" stroke-linejoin="miter"/></defs><g clip-path="url(#pf3aae1c65c)" fill="#4e79a7" stroke="#4e79a7" stroke-linejoin="miter"><use x="87.389898" xlink:href="#m3495ba6f44" y="-1"/><use x="109.599227" xlink:href="#m3495ba6f44" y="57.174509"/><use x="171.478454" xlink:href="#m3495ba6f44" y="153.644764"/><use x="181.993281" xlink:href="#m3495ba6f44" y="165.17109"/><use x="233.357681" xlink:href="#m3495ba6f44" y="207.262532"/><use x="295.236907" xlink:href="#m3495ba6f44" y="236.300971"/><use x="357.116134" xlink:href="#m3495ba6f44" y="251.454554"/><use x="418.995361" xlink:href="#m3495ba6f44" y="258.98958"/><use x="480.874588" xlink:href="#m3495ba6f44" y="262.839855"/><use x="542.753815" xlink:href="#m3495ba6f44" y="264.721305"/><use x="604.633042" xlink:href="#m3495ba6f44" y="265.655187"/><use x="666.512269" xlink:href="#m3495ba6f44" y="266.143705"/></g></g><g id="line2d_41"><path clip-path="url(#pf3aae1c65c)" d="m109.599227 81.073803 72.394054 101.76914 51.3644 35.949256 39.841323 18.585193 32.552731 8.581552 27.522942 5.217035 23.841457 3.935588 21.029656 2.894721 18.811668 3.251425 17.017223.167513 15.535508.773458 14.291282.892242 13.23166 1.498831 12.318381-.776441 11.523076 2.594556" fill="none" stroke="#f28e2b" stroke-linecap="square" stroke-width="1.5"/><defs><path d="M0 3c.795609 0 1.55874-.316099 2.12132-.87868C2.683901 1.55874 3 .795609 3 0c0-.795609-.316099-1.55874-.87868-2.12132C1.55874-2.683901.795609-3 0-3c-.795609 0-1.55874.316099-2.12132.87868C-2.683901-1.55874-3-.795609-3 0c0 .795609.316099 1.55874.87868 2.12132C-1.55874 2.683901-.795609 3 0 3z" id="mca133400e1" stroke="#f28e2b"/></defs><g clip-path="url(#pf3aae1c65c)" fill="#f28e2b" stroke="#f28e2b"><use x="109.599227" xlink:href="#mca133400e1" y="81.073803"/><use x="181.993281" xlink:href="#mca133400e1" y="182.842943"/><use x="233.357681" xlink:href="#mca133400e1" y="218.792199"/><use x="273.199004" xlink:href="#mca133400e1" y="237.377392"/><use x="305.751735" xlink:href="#mca133400e1" y="245.958944"/><use x="333.274677" xlink:href="#mca133400e1" y="251.175979"/><use x="357.116134" xlink:href="#mca133400e1" y="255.111567"/><use x="378.14579" xlink:href="#mca133400e1" y="258.006288"/><use x="396.957458" xlink:href="#mca133400e1" y="261.257713"/><use x="413.974681" xlink:href="#mca133400e1" y="261.425226"/><use x="429.510189" xlink:href="#mca133400e1" y="262.198684"/><use x="443.801471" xlink:href="#mca133400e1" y="263.090926"/><use x="457.033131" xlink:href="#mca133400e1" y="264.589757"/><use x="469.351512" xlink:href="#mca133400e1" y="263.813316"/><use x="480.874588" xlink:href="#mca133400e1" y="266.407872"/></g></g><path d="M47.72 300.76V10.8" fill="none" stroke="#000" stroke-linecap="square" stroke-linejoin="miter" stroke-width=".8" id="patch_3"/><path d="M675.02088 300.76V10.8" fill="none" stroke="#000" stroke-linecap="square" stroke-linejoin="miter" stroke-width=".8" id="patch_4"/><path d="M47.72 300.76h627.30088" fill="none" stroke="#000" stroke-linecap="square" stroke-linejoin="miter" stroke-width=".8" id="patch_5"/><path d="M47.72 10.8h627.30088" fill="none" stroke="#000" stroke-linecap="square" stroke-linejoin="miter" stroke-width=".8" id="patch_6"/><g id="legend_1"><path d="M566.00213 66.65625h102.01875q2 0 2-2V17.8q0-2-2-2H566.00213q-2 0-2 2v46.85625q0 2 2 2z" fill="#fff" opacity=".8" stroke="#ccc" stroke-linejoin="miter" id="patch_7"/><path d="M568.00213 23.898438h20" fill="none" stroke="#4e79a7" stroke-linecap="square" stroke-width="1.5" id="line2d_42"/><use x="578.00213" xlink:href="#m3495ba6f44" y="23.898438" fill="#4e79a7" stroke="#4e79a7" stroke-linejoin="miter" id="line2d_43"/><g transform="matrix(.1 0 0 -.1 596.00213 27.398438)" id="text_19"><use xlink:href="#DejaVuSans-72"/><use x="41.113281" xlink:href="#DejaVuSans-61"/><use x="102.392578" xlink:href="#DejaVuSans-6e"/><use x="165.771484" xlink:href="#DejaVuSans-64"/><use x="229.248047" xlink:href="#DejaVuSans-6f"/><use x="290.429688" xlink:href="#DejaVuSans-6d"/></g><path d="M568.00213 42.378125h20" fill="none" stroke="#f28e2b" stroke-linecap="square" stroke-width="1.5" id="line2d_44"/><use x="578.00213" xlink:href="#mca133400e1" y="42.378125" fill="#f28e2b" stroke="#f28e2b" id="line2d_45"/><g transform="matrix(.1 0 0 -.1 596.00213 45.878125)" id="text_20"><defs><path d="M6970 9933 3373-1888h-269L1626 2918q-71 231-161 333-89 103-236 103-218 0-435-173l-77 128 1049 806h160L3379-602h26L6605 9933h365z" id="STIXSizeOneSym-Regular-221a" transform="scale(.01563)"/><path d="M4488 3438 3059 2003 4488 575l-372-378-1435 1434L1247 197 878 575l1425 1428L878 3438l369 378 1434-1435 1435 1435 372-378z" id="DejaVuSans-d7" transform="scale(.01563)"/><path d="M313 2009h1684v-512H313v512z" id="DejaVuSans-2d" transform="scale(.01563)"/></defs><use transform="matrix(.58058 0 0 .58058 0 17.984375)" xlink:href="#STIXSizeOneSym-Regular-221a"/><use transform="translate(73.805984 .765625)" xlink:href="#DejaVuSans-Oblique-6b"/><use transform="translate(163.698563 .875)" xlink:href="#DejaVuSans-d7"/><use transform="matrix(.58058 0 0 .58058 266.970047 17.984375)" xlink:href="#STIXSizeOneSym-Regular-221a"/><use transform="translate(340.776031 .765625)" xlink:href="#DejaVuSans-Oblique-6b"/><use transform="translate(411.186188 .875)" xlink:href="#DejaVuSans-2d"/><use transform="translate(447.270172 .875)" xlink:href="#DejaVuSans-67"/><use transform="translate(510.746735 .875)" xlink:href="#DejaVuSans-72"/><use transform="translate(551.860016 .875)" xlink:href="#DejaVuSans-69"/><use transform="translate(579.643219 .875)" xlink:href="#DejaVuSans-64"/><path d="M61.305984 101.5v6.25h82.910157v-6.25H61.305984zM328.276031 101.5v6.25h82.910157v-6.25h-82.910157z"/></g><path d="M568.00213 57.076563h20" fill="none" stroke="#59a14f" stroke-linecap="square" stroke-width="1.5" id="line2d_46"/><use x="578.00213" xlink:href="#m30f704a2cc" y="57.076563" fill="#59a14f" stroke="#59a14f" stroke-linejoin="miter" id="line2d_47"/><g transform="matrix(.1 0 0 -.1 596.00213 60.576563)" id="text_21"><use xlink:href="#DejaVuSans-73"/><use x="52.099609" xlink:href="#DejaVuSans-61"/><use x="113.378906" xlink:href="#DejaVuSans-6d"/><use x="210.791016" xlink:href="#DejaVuSans-65"/><use x="272.314453" xlink:href="#DejaVuSans-20"/><use x="304.101562" xlink:href="#DejaVuSans-70"/><use x="367.578125" xlink:href="#DejaVuSans-6f"/><use x="428.759766" xlink:href="#DejaVuSans-73"/><use x="480.859375" xlink:href="#DejaVuSans-69"/><use x="508.642578" xlink:href="#DejaVuSans-74"/><use x="547.851562" xlink:href="#DejaVuSans-69"/><use x="575.634766" xlink:href="#DejaVuSans-6f"/><use x="636.816406" xlink:href="#DejaVuSans-6e"/></g></g></g></g><defs><clipPath id="pf3aae1c65c"><path d="M47.72 10.8h627.30088v289.96H47.72z"/></clipPath></defs></svg>