<svg height="500" viewBox="0 0 720 360" width="1000" xmlns="http://www.w3.org/2000/svg" xmlns:xlink="http://www.w3.org/1999/xlink"><defs><style>*{stroke-linecap:butt;stroke-linejoin:round}</style></defs><g id="figure_1"><path d="M0 360h720V0H0z" fill="#fff" id="patch_1"/><g id="axes_1"><path d="M36 300.6h676.8V6.84H36z" fill="#fff" id="patch_2"/><path clip-path="url(#pa1b435fa1a)" d="M66.763636 300.6h29.298702V20.828571H66.763636z" fill="#006ba4" id="patch_3"/><path clip-path="url(#pa1b435fa1a)" d="M103.387013 300.6h29.298701V51.914286h-29.298701z" fill="#ff800e" id="patch_4"/><path clip-path="url(#pa1b435fa1a)" d="M140.01039 300.6h29.298701V51.914286H140.01039z" fill="#ababab" id="patch_5"/><path clip-path="url(#pa1b435fa1a)" d="M176.633766 300.6h29.298702V51.914286h-29.298702z" fill="#595959" id="patch_6"/><path clip-path="url(#pa1b435fa1a)" d="M213.257143 300.6h29.298701V58.649524h-29.298701z" fill="#5f9ed1" id="patch_7"/><path clip-path="url(#pa1b435fa1a)" d="M249.880519 300.6h29.298702V62.27619h-29.298702z" fill="#c85200" id="patch_8"/><path clip-path="url(#pa1b435fa1a)" d="M286.503896 300.6h29.298701V67.457143h-29.298701z" fill="#898989" id="patch_9"/><path clip-path="url(#pa1b435fa1a)" d="M323.127273 300.6h29.298701V77.819048h-29.298701z" fill="#a3c8ec" id="patch_10"/><path clip-path="url(#pa1b435fa1a)" d="M359.750649 300.6h29.298702V92.84381h-29.298702z" fill="#ffbc79" id="patch_11"/><path clip-path="url(#pa1b435fa1a)" d="M396.374026 300.6h29.298701V137.918095h-29.298701z" fill="#cfcfcf" id="patch_12"/><path clip-path="url(#pa1b435fa1a)" d="M432.997403 300.6h29.298701V160.714286h-29.298701z" fill="#0173b2" id="patch_13"/><path clip-path="url(#pa1b435fa1a)" d="M469.620779 300.6h29.298702V160.714286h-29.298702z" fill="#de8f05" id="patch_14"/><path clip-path="url(#pa1b435fa1a)" d="M506.244156 300.6h29.298701V162.942095h-29.298701z" fill="#029e73" id="patch_15"/><path clip-path="url(#pa1b435fa1a)" d="M542.867532 300.6h29.298702V166.72419h-29.298702z" fill="#d55e00" id="patch_16"/><path clip-path="url(#pa1b435fa1a)" d="M579.490909 300.6h29.298701V168.330286h-29.298701z" fill="#cc78bc" id="patch_17"/><path clip-path="url(#pa1b435fa1a)" d="M616.114286 300.6h29.298701V171.07619h-29.298701z" fill="#ca9161" id="patch_18"/><path clip-path="url(#pa1b435fa1a)" d="M652.737662 300.6h29.298702V175.790857h-29.298702z" fill="#fbafe4" id="patch_19"/><g id="matplotlib.axis_1"><g id="xtick_1"><g id="line2d_1"><defs><path d="M0 0v3.5" id="m997b4f59f6" stroke="#000" stroke-width=".8"/></defs><use x="81.412987" xlink:href="#m997b4f59f6" y="300.6" stroke="#000" stroke-width=".8"/></g><g transform="matrix(.08 0 0 -.08 73.201737 313.67875)" id="text_1"><defs><path d="M550 4863h1325v-447h-750V-397h750v-447H550v5707z" id="DejaVuSans-5b" transform="scale(.01563)"/><path d="M794 531h1031v3560L703 3866v575l1116 225h631V531h1031V0H794v531z" id="DejaVuSans-31" transform="scale(.01563)"/><path d="M2034 4250q-487 0-733-480-245-479-245-1442 0-959 245-1439 246-480 733-480 491 0 736 480 246 480 246 1439 0 963-246 1442-245 480-736 480zm0 500q785 0 1199-621 414-620 414-1801 0-1178-414-1799Q2819-91 2034-91q-784 0-1198 620-414 621-414 1799 0 1181 414 1801 414 621 1198 621z" id="DejaVuSans-30" transform="scale(.01563)"/><path d="M1947 4863V-844H622v447h747v4813H622v447h1325z" id="DejaVuSans-5d" transform="scale(.01563)"/></defs><use xlink:href="#DejaVuSans-5b"/><use x="39.013672" xlink:href="#DejaVuSans-31"/><use x="102.636719" xlink:href="#DejaVuSans-30"/><use x="166.259766" xlink:href="#DejaVuSans-5d"/></g></g><g id="xtick_2"><use x="118.036364" xlink:href="#m997b4f59f6" y="300.6" stroke="#000" stroke-width=".8" id="line2d_2"/><g transform="matrix(.08 0 0 -.08 112.370114 313.67875)" id="text_2"><defs><path d="M2597 2516q453-97 707-404 255-306 255-756 0-690-475-1069Q2609-91 1734-91q-293 0-604 58T488 141v609q262-153 574-231 313-78 654-78 593 0 904 234t311 681q0 413-289 645-289 233-804 233h-544v519h569q465 0 712 186t247 536q0 359-255 551-254 193-729 193-260 0-557-57-297-56-653-174v562q360 100 674 150t592 50q719 0 1137-327 419-326 419-882 0-388-222-655t-631-370z" id="DejaVuSans-33" transform="scale(.01563)"/></defs><use xlink:href="#DejaVuSans-5b"/><use x="39.013672" xlink:href="#DejaVuSans-33"/><use x="102.636719" xlink:href="#DejaVuSans-5d"/></g></g><g id="xtick_3"><use x="154.65974" xlink:href="#m997b4f59f6" y="300.6" stroke="#000" stroke-width=".8" id="line2d_3"/><g transform="matrix(.08 0 0 -.08 148.99349 313.67875)" id="text_3"><defs><path d="M703 97v575q238-113 481-172 244-59 479-59 625 0 954 420 330 420 377 1277-181-269-460-413-278-144-615-144-700 0-1108 423-408 424-408 1159 0 718 425 1152 425 435 1131 435 810 0 1236-621 427-620 427-1801 0-1103-524-1761Q2575-91 1691-91q-238 0-482 47Q966 3 703 97zm1256 1978q425 0 673 290 249 291 249 798 0 503-249 795-248 292-673 292t-673-292q-248-292-248-795 0-507 248-798 248-290 673-290z" id="DejaVuSans-39" transform="scale(.01563)"/></defs><use xlink:href="#DejaVuSans-5b"/><use x="39.013672" xlink:href="#DejaVuSans-39"/><use x="102.636719" xlink:href="#DejaVuSans-5d"/></g></g><g id="xtick_4"><use x="191.283117" xlink:href="#m997b4f59f6" y="300.6" stroke="#000" stroke-width=".8" id="line2d_4"/><g transform="matrix(.08 0 0 -.08 185.616867 313.67875)" id="text_4"><use xlink:href="#DejaVuSans-5b"/><use x="39.013672" xlink:href="#DejaVuSans-31"/><use x="102.636719" xlink:href="#DejaVuSans-5d"/></g></g><g id="xtick_5"><use x="227.906494" xlink:href="#m997b4f59f6" y="300.6" stroke="#000" stroke-width=".8" id="line2d_5"/><g id="text_5"><g transform="matrix(.08 0 0 -.08 222.240244 313.67875)"><defs><path d="M691 4666h2478v-532H1269V2991q137 47 274 70 138 23 276 23 781 0 1237-428 457-428 457-1159 0-753-469-1171Q2575-91 1722-91q-294 0-599 50Q819 9 494 109v635q281-153 581-228t634-75q541 0 856 284 316 284 316 772 0 487-316 771-315 285-856 285-253 0-505-56-251-56-513-175v2344z" id="DejaVuSans-35" transform="scale(.01563)"/></defs><use xlink:href="#DejaVuSans-5b"/><use x="39.013672" xlink:href="#DejaVuSans-35"/><use x="102.636719" xlink:href="#DejaVuSans-5d"/></g><g transform="matrix(.08 0 0 -.08 214.986494 322.637)"><defs><path d="M1984 4856q-418-718-622-1422-203-703-203-1425 0-721 205-1429t620-1424h-500Q1016-109 783 600T550 2009q0 697 231 1403 232 707 703 1444h500z" id="DejaVuSans-28" transform="scale(.01563)"/><path d="M1172 4863h575l-550-2835 1972 1472h747L1716 1825 3322 0h-697L1131 1709 800 0H225l947 4863z" id="DejaVuSans-Oblique-6b" transform="scale(.01563)"/><path d="M678 2906h4006v-525H678v525zm0-1275h4006v-531H678v531z" id="DejaVuSans-3d" transform="scale(.01563)"/><path d="M513 4856h500q468-737 701-1444 233-706 233-1403 0-700-233-1409T1013-844H513q415 716 620 1424t205 1429q0 722-205 1425-205 704-620 1422z" id="DejaVuSans-29" transform="scale(.01563)"/></defs><use transform="translate(0 .015625)" xlink:href="#DejaVuSans-28"/><use transform="translate(39.013672 .015625)" xlink:href="#DejaVuSans-Oblique-6b"/><use transform="translate(116.40625 .015625)" xlink:href="#DejaVuSans-3d"/><use transform="translate(219.677734 .015625)" xlink:href="#DejaVuSans-39"/><use transform="translate(283.300781 .015625)" xlink:href="#DejaVuSans-29"/></g><g transform="matrix(.08 0 0 -.08 206.450869 331.59525)"><defs><path d="M628 4666h941l1190-3175 1197 3175h941V0h-616v4097L3078 897h-634L1241 4097V0H628v4666z" id="DejaVuSans-4d" transform="scale(.01563)"/><path d="M1259 4147V2394h794q441 0 681 228 241 228 241 650 0 419-241 647-240 228-681 228h-794zm-631 519h1425q785 0 1186-355 402-355 402-1039 0-691-402-1044-401-353-1186-353h-794V0H628v4666z" id="DejaVuSans-50" transform="scale(.01563)"/><path d="M628 4666h631V0H628v4666z" id="DejaVuSans-49" transform="scale(.01563)"/><path d="M3809 666v1253H2778v519h1656V434q-365-259-806-392-440-133-940-133-1094 0-1712 639-617 640-617 1780 0 1144 617 1783 618 639 1712 639 456 0 867-113 411-112 758-331v-672q-350 297-744 447t-828 150q-857 0-1287-478-429-478-429-1425 0-944 429-1422 430-478 1287-478 334 0 596 58 263 58 472 180z" id="DejaVuSans-47" transform="scale(.01563)"/><path d="M2194 1759q-697 0-966-159t-269-544q0-306 202-486 202-179 548-179 479 0 768 339t289 901v128h-572zm1147 238V0h-575v531q-197-318-491-470T1556-91q-537 0-855 302-317 302-317 808 0 590 395 890 396 300 1180 300h807v57q0 397-261 614t-733 217q-300 0-585-72-284-72-546-216v532q315 122 612 182 297 61 578 61 760 0 1135-394 375-393 375-1193z" id="DejaVuSans-61" transform="scale(.01563)"/><path d="M353 3500h2731v-525L922 459h2162V0H275v525l2163 2516H353v459z" id="DejaVuSans-7a" transform="scale(.01563)"/><path d="M3597 1894v-281H953q38-594 358-905t892-311q331 0 642 81t618 244V178Q3153 47 2828-22t-659-69q-838 0-1327 487-489 488-489 1320 0 859 464 1363 464 505 1252 505 706 0 1117-455 411-454 411-1235zm-575 169q-6 471-264 752-258 282-683 282-481 0-770-272t-333-766l2050 4z" id="DejaVuSans-65" transform="scale(.01563)"/></defs><use xlink:href="#DejaVuSans-28"/><use x="39.013672" xlink:href="#DejaVuSans-4d"/><use x="125.292969" xlink:href="#DejaVuSans-50"/><use x="185.595703" xlink:href="#DejaVuSans-49"/><use x="215.087891" xlink:href="#DejaVuSans-49"/><use x="244.580078" xlink:href="#DejaVuSans-47"/><use x="322.070312" xlink:href="#DejaVuSans-61"/><use x="383.349609" xlink:href="#DejaVuSans-7a"/><use x="435.839844" xlink:href="#DejaVuSans-65"/><use x="497.363281" xlink:href="#DejaVuSans-29"/></g></g></g><g id="xtick_6"><use x="264.52987" xlink:href="#m997b4f59f6" y="300.6" stroke="#000" stroke-width=".8" id="line2d_6"/><g id="text_6"><g transform="matrix(.08 0 0 -.08 258.86362 313.67875)"><defs><path d="M525 4666h3000v-269L1831 0h-659l1594 4134H525v532z" id="DejaVuSans-37" transform="scale(.01563)"/></defs><use xlink:href="#DejaVuSans-5b"/><use x="39.013672" xlink:href="#DejaVuSans-37"/><use x="102.636719" xlink:href="#DejaVuSans-5d"/></g><g transform="matrix(.08 0 0 -.08 249.08987 322.637)"><defs><path d="M1228 531h2203V0H469v531q359 372 979 998 621 627 780 809 303 340 423 576 121 236 121 464 0 372-261 606-261 235-680 235-297 0-627-103-329-103-704-313v638q381 153 712 231 332 78 607 78 725 0 1156-363 431-362 431-968 0-288-108-546-107-257-392-607-78-91-497-524-418-433-1181-1211z" id="DejaVuSans-32" transform="scale(.01563)"/></defs><use transform="translate(0 .015625)" xlink:href="#DejaVuSans-28"/><use transform="translate(39.013672 .015625)" xlink:href="#DejaVuSans-Oblique-6b"/><use transform="translate(116.40625 .015625)" xlink:href="#DejaVuSans-3d"/><use transform="translate(219.677734 .015625)" xlink:href="#DejaVuSans-32"/><use transform="translate(283.300781 .015625)" xlink:href="#DejaVuSans-30"/><use transform="translate(346.923828 .015625)" xlink:href="#DejaVuSans-29"/></g></g></g><g id="xtick_7"><use x="301.153247" xlink:href="#m997b4f59f6" y="300.6" stroke="#000" stroke-width=".8" id="line2d_7"/><g transform="matrix(.08 0 0 -.08 295.486997 313.67875)" id="text_7"><use xlink:href="#DejaVuSans-5b"/><use x="39.013672" xlink:href="#DejaVuSans-32"/><use x="102.636719" xlink:href="#DejaVuSans-5d"/></g></g><g id="xtick_8"><use x="337.776623" xlink:href="#m997b4f59f6" y="300.6" stroke="#000" stroke-width=".8" id="line2d_8"/><g id="text_8"><g transform="matrix(.08 0 0 -.08 332.110373 313.67875)"><use xlink:href="#DejaVuSans-5b"/><use x="39.013672" xlink:href="#DejaVuSans-33"/><use x="102.636719" xlink:href="#DejaVuSans-5d"/></g><g transform="matrix(.08 0 0 -.08 321.504748 322.637)"><defs><path d="M2419 4116 825 1625h1594v2491zm-166 550h794V1625h666v-525h-666V0h-628v1100H313v609l1940 2957z" id="DejaVuSans-34" transform="scale(.01563)"/><path d="M3328 2828q216 388 516 572t706 184q547 0 844-383 297-382 297-1088V0h-578v2094q0 503-179 746-178 244-543 244-447 0-707-297-259-296-259-809V0h-578v2094q0 506-178 748t-550 242q-441 0-701-298-259-298-259-808V0H581v3500h578v-544q197 322 472 475t653 153q382 0 649-194 267-193 395-562z" id="DejaVuSans-6d" transform="scale(.01563)"/><path d="M1959 3097q-462 0-731-361t-269-989q0-628 267-989 268-361 733-361 460 0 728 362 269 363 269 988 0 622-269 986-268 364-728 364zm0 487q750 0 1178-488 429-487 429-1349 0-859-429-1349Q2709-91 1959-91q-753 0-1180 489-426 490-426 1349 0 862 426 1349 427 488 1180 488z" id="DejaVuSans-6f" transform="scale(.01563)"/><path d="M2906 2969v1894h575V0h-575v525q-181-312-458-464-276-152-664-152-634 0-1033 506-398 507-398 1332t398 1331q399 506 1033 506 388 0 664-152 277-151 458-463zM947 1747q0-634 261-995t717-361q456 0 718 361 263 361 263 995t-263 995q-262 361-718 361t-717-361q-261-361-261-995z" id="DejaVuSans-64" transform="scale(.01563)"/><path d="M603 4863h575V0H603v4863z" id="DejaVuSans-6c" transform="scale(.01563)"/></defs><use xlink:href="#DejaVuSans-34"/><use x="63.623047" xlink:href="#DejaVuSans-20"/><use x="95.410156" xlink:href="#DejaVuSans-6d"/><use x="192.822266" xlink:href="#DejaVuSans-6f"/><use x="254.003906" xlink:href="#DejaVuSans-64"/><use x="317.480469" xlink:href="#DejaVuSans-65"/><use x="379.003906" xlink:href="#DejaVuSans-6c"/></g><g transform="matrix(.08 0 0 -.08 318.227248 331.59525)"><defs><path d="M3513 2113V0h-575v2094q0 497-194 743-194 247-581 247-466 0-735-297-269-296-269-809V0H581v3500h578v-544q207 316 486 472 280 156 646 156 603 0 912-373 310-373 310-1098z" id="DejaVuSans-6e" transform="scale(.01563)"/><path d="M2834 3397v-544q-243 125-506 187-262 63-544 63-428 0-642-131t-214-394q0-200 153-314t616-217l197-44q612-131 870-370t258-667q0-488-386-773Q2250-91 1575-91q-281 0-586 55T347 128v594q319-166 628-249 309-82 613-82 406 0 624 139 219 139 219 392 0 234-158 359-157 125-692 241l-200 47q-534 112-772 345-237 233-237 639 0 494 350 762 350 269 994 269 318 0 599-47 282-46 519-140z" id="DejaVuSans-73" transform="scale(.01563)"/><path d="M3116 1747q0 634-261 995t-717 361q-457 0-718-361t-261-995q0-634 261-995t718-361q456 0 717 361t261 995zM1159 2969q182 312 458 463 277 152 661 152 638 0 1036-506 399-506 399-1331T3314 415Q2916-91 2278-91q-384 0-661 152-276 152-458 464V0H581v4863h578V2969z" id="DejaVuSans-62" transform="scale(.01563)"/></defs><use xlink:href="#DejaVuSans-65"/><use x="61.523438" xlink:href="#DejaVuSans-6e"/><use x="124.902344" xlink:href="#DejaVuSans-73"/><use x="177.001953" xlink:href="#DejaVuSans-65"/><use x="238.525391" xlink:href="#DejaVuSans-6d"/><use x="335.9375" xlink:href="#DejaVuSans-62"/><use x="399.414062" xlink:href="#DejaVuSans-6c"/><use x="427.197266" xlink:href="#DejaVuSans-65"/></g></g></g><g id="xtick_9"><use x="374.4" xlink:href="#m997b4f59f6" y="300.6" stroke="#000" stroke-width=".8" id="line2d_9"/><g id="text_9"><g transform="matrix(.08 0 0 -.08 368.73375 313.67875)"><defs><path d="M2034 2216q-450 0-708-241-257-241-257-662 0-422 257-663 258-241 708-241t709 242q260 243 260 662 0 421-258 662-257 241-711 241zm-631 268q-406 100-633 378-226 279-226 679 0 559 398 884 399 325 1092 325 697 0 1094-325t397-884q0-400-227-679-226-278-629-378 456-106 710-416 255-309 255-755 0-679-414-1042Q2806-91 2034-91q-771 0-1186 362-414 363-414 1042 0 446 256 755 257 310 713 416zm-231 997q0-362 226-565 227-203 636-203 407 0 636 203 230 203 230 565 0 363-230 566-229 203-636 203-409 0-636-203-226-203-226-566z" id="DejaVuSans-38" transform="scale(.01563)"/></defs><use xlink:href="#DejaVuSans-5b"/><use x="39.013672" xlink:href="#DejaVuSans-38"/><use x="102.636719" xlink:href="#DejaVuSans-5d"/></g><g transform="matrix(.08 0 0 -.08 361.48 322.637)"><use transform="translate(0 .015625)" xlink:href="#DejaVuSans-28"/><use transform="translate(39.013672 .015625)" xlink:href="#DejaVuSans-Oblique-6b"/><use transform="translate(116.40625 .015625)" xlink:href="#DejaVuSans-3d"/><use transform="translate(219.677734 .015625)" xlink:href="#DejaVuSans-39"/><use transform="translate(283.300781 .015625)" xlink:href="#DejaVuSans-29"/></g><g transform="matrix(.08 0 0 -.08 352.944375 331.59525)"><use xlink:href="#DejaVuSans-28"/><use x="39.013672" xlink:href="#DejaVuSans-4d"/><use x="125.292969" xlink:href="#DejaVuSans-50"/><use x="185.595703" xlink:href="#DejaVuSans-49"/><use x="215.087891" xlink:href="#DejaVuSans-49"/><use x="244.580078" xlink:href="#DejaVuSans-47"/><use x="322.070312" xlink:href="#DejaVuSans-61"/><use x="383.349609" xlink:href="#DejaVuSans-7a"/><use x="435.839844" xlink:href="#DejaVuSans-65"/><use x="497.363281" xlink:href="#DejaVuSans-29"/></g></g></g><g id="xtick_10"><use x="411.023377" xlink:href="#m997b4f59f6" y="300.6" stroke="#000" stroke-width=".8" id="line2d_10"/><g id="text_10"><g transform="matrix(.08 0 0 -.08 405.357127 313.67875)"><defs><path d="M2113 2584q-425 0-674-291-248-290-248-796 0-503 248-796 249-292 674-292t673 292q248 293 248 796 0 506-248 796-248 291-673 291zm1253 1979v-575q-238 112-480 171-242 60-480 60-625 0-955-422-329-422-376-1275 184 272 462 417 279 145 613 145 703 0 1111-427 408-426 408-1160 0-719-425-1154Q2819-91 2113-91q-810 0-1238 620-428 621-428 1799 0 1106 525 1764t1409 658q238 0 480-47t505-140z" id="DejaVuSans-36" transform="scale(.01563)"/></defs><use xlink:href="#DejaVuSans-5b"/><use x="39.013672" xlink:href="#DejaVuSans-36"/><use x="102.636719" xlink:href="#DejaVuSans-5d"/></g><g transform="matrix(.08 0 0 -.08 398.103377 322.637)"><use transform="translate(0 .015625)" xlink:href="#DejaVuSans-28"/><use transform="translate(39.013672 .015625)" xlink:href="#DejaVuSans-Oblique-6b"/><use transform="translate(116.40625 .015625)" xlink:href="#DejaVuSans-3d"/><use transform="translate(219.677734 .015625)" xlink:href="#DejaVuSans-39"/><use transform="translate(283.300781 .015625)" xlink:href="#DejaVuSans-29"/></g></g></g><g id="xtick_11"><use x="447.646753" xlink:href="#m997b4f59f6" y="300.6" stroke="#000" stroke-width=".8" id="line2d_11"/><g id="text_11"><g transform="matrix(.08 0 0 -.08 441.980503 313.67875)"><use xlink:href="#DejaVuSans-5b"/><use x="39.013672" xlink:href="#DejaVuSans-34"/><use x="102.636719" xlink:href="#DejaVuSans-5d"/></g><g transform="matrix(.08 0 0 -.08 434.726753 322.637)"><use transform="translate(0 .015625)" xlink:href="#DejaVuSans-28"/><use transform="translate(39.013672 .015625)" xlink:href="#DejaVuSans-Oblique-6b"/><use transform="translate(116.40625 .015625)" xlink:href="#DejaVuSans-3d"/><use transform="translate(219.677734 .015625)" xlink:href="#DejaVuSans-39"/><use transform="translate(283.300781 .015625)" xlink:href="#DejaVuSans-29"/></g></g></g><g id="xtick_12"><use x="484.27013" xlink:href="#m997b4f59f6" y="300.6" stroke="#000" stroke-width=".8" id="line2d_12"/><g id="text_12"><g transform="matrix(.08 0 0 -.08 478.60388 313.67875)"><use xlink:href="#DejaVuSans-5b"/><use x="39.013672" xlink:href="#DejaVuSans-32"/><use x="102.636719" xlink:href="#DejaVuSans-5d"/></g><g transform="matrix(.08 0 0 -.08 471.35013 322.637)"><use transform="translate(0 .015625)" xlink:href="#DejaVuSans-28"/><use transform="translate(39.013672 .015625)" xlink:href="#DejaVuSans-Oblique-6b"/><use transform="translate(116.40625 .015625)" xlink:href="#DejaVuSans-3d"/><use transform="translate(219.677734 .015625)" xlink:href="#DejaVuSans-39"/><use transform="translate(283.300781 .015625)" xlink:href="#DejaVuSans-29"/></g></g></g><g id="xtick_13"><use x="520.893506" xlink:href="#m997b4f59f6" y="300.6" stroke="#000" stroke-width=".8" id="line2d_13"/><g id="text_13"><g transform="matrix(.08 0 0 -.08 512.639756 313.67875)"><defs><path d="M269 3500h575l719-2731 715 2731h678l719-2731 716 2731h575L4050 0h-678l-753 2869L1863 0h-679L269 3500z" id="DejaVuSans-77" transform="scale(.01563)"/></defs><use xlink:href="#DejaVuSans-6f"/><use x="61.181641" xlink:href="#DejaVuSans-77"/><use x="142.96875" xlink:href="#DejaVuSans-6e"/></g><g transform="matrix(.08 0 0 -.08 504.621631 322.637)"><use xlink:href="#DejaVuSans-6d"/><use x="97.412109" xlink:href="#DejaVuSans-6f"/><use x="158.59375" xlink:href="#DejaVuSans-64"/><use x="222.070312" xlink:href="#DejaVuSans-65"/><use x="283.59375" xlink:href="#DejaVuSans-6c"/><use x="311.376953" xlink:href="#DejaVuSans-20"/><use x="343.164062" xlink:href="#DejaVuSans-31"/></g><g transform="matrix(.08 0 0 -.08 507.973506 331.59525)"><use transform="translate(0 .015625)" xlink:href="#DejaVuSans-28"/><use transform="translate(39.013672 .015625)" xlink:href="#DejaVuSans-Oblique-6b"/><use transform="translate(116.40625 .015625)" xlink:href="#DejaVuSans-3d"/><use transform="translate(219.677734 .015625)" xlink:href="#DejaVuSans-39"/><use transform="translate(283.300781 .015625)" xlink:href="#DejaVuSans-29"/></g></g></g><g id="xtick_14"><use x="557.516883" xlink:href="#m997b4f59f6" y="300.6" stroke="#000" stroke-width=".8" id="line2d_14"/><g id="text_14"><g transform="matrix(.08 0 0 -.08 549.263133 313.67875)"><use xlink:href="#DejaVuSans-6f"/><use x="61.181641" xlink:href="#DejaVuSans-77"/><use x="142.96875" xlink:href="#DejaVuSans-6e"/></g><g transform="matrix(.08 0 0 -.08 541.245008 322.637)"><use xlink:href="#DejaVuSans-6d"/><use x="97.412109" xlink:href="#DejaVuSans-6f"/><use x="158.59375" xlink:href="#DejaVuSans-64"/><use x="222.070312" xlink:href="#DejaVuSans-65"/><use x="283.59375" xlink:href="#DejaVuSans-6c"/><use x="311.376953" xlink:href="#DejaVuSans-20"/><use x="343.164062" xlink:href="#DejaVuSans-32"/></g><g transform="matrix(.08 0 0 -.08 544.596883 331.59525)"><use transform="translate(0 .015625)" xlink:href="#DejaVuSans-28"/><use transform="translate(39.013672 .015625)" xlink:href="#DejaVuSans-Oblique-6b"/><use transform="translate(116.40625 .015625)" xlink:href="#DejaVuSans-3d"/><use transform="translate(219.677734 .015625)" xlink:href="#DejaVuSans-39"/><use transform="translate(283.300781 .015625)" xlink:href="#DejaVuSans-29"/></g></g></g><g id="xtick_15"><use x="594.14026" xlink:href="#m997b4f59f6" y="300.6" stroke="#000" stroke-width=".8" id="line2d_15"/><g id="text_15"><g transform="matrix(.08 0 0 -.08 585.88651 313.67875)"><use xlink:href="#DejaVuSans-6f"/><use x="61.181641" xlink:href="#DejaVuSans-77"/><use x="142.96875" xlink:href="#DejaVuSans-6e"/></g><g transform="matrix(.08 0 0 -.08 577.868385 322.637)"><use xlink:href="#DejaVuSans-6d"/><use x="97.412109" xlink:href="#DejaVuSans-6f"/><use x="158.59375" xlink:href="#DejaVuSans-64"/><use x="222.070312" xlink:href="#DejaVuSans-65"/><use x="283.59375" xlink:href="#DejaVuSans-6c"/><use x="311.376953" xlink:href="#DejaVuSans-20"/><use x="343.164062" xlink:href="#DejaVuSans-33"/></g><g transform="matrix(.08 0 0 -.08 581.22026 331.59525)"><use transform="translate(0 .015625)" xlink:href="#DejaVuSans-28"/><use transform="translate(39.013672 .015625)" xlink:href="#DejaVuSans-Oblique-6b"/><use transform="translate(116.40625 .015625)" xlink:href="#DejaVuSans-3d"/><use transform="translate(219.677734 .015625)" xlink:href="#DejaVuSans-39"/><use transform="translate(283.300781 .015625)" xlink:href="#DejaVuSans-29"/></g></g></g><g id="xtick_16"><use x="630.763636" xlink:href="#m997b4f59f6" y="300.6" stroke="#000" stroke-width=".8" id="line2d_16"/><g id="text_16"><g transform="matrix(.08 0 0 -.08 622.552386 313.67875)"><use xlink:href="#DejaVuSans-5b"/><use x="39.013672" xlink:href="#DejaVuSans-31"/><use x="102.636719" xlink:href="#DejaVuSans-30"/><use x="166.259766" xlink:href="#DejaVuSans-5d"/></g><g transform="matrix(.08 0 0 -.08 608.163636 322.637)"><defs><path d="M750 794h659V256L897-744H494L750 256v538z" id="DejaVuSans-2c" transform="scale(.01563)"/></defs><use transform="translate(0 .015625)" xlink:href="#DejaVuSans-28"/><use transform="translate(39.013672 .015625)" xlink:href="#DejaVuSans-Oblique-6b"/><use transform="translate(116.40625 .015625)" xlink:href="#DejaVuSans-3d"/><use transform="translate(219.677734 .015625)" xlink:href="#DejaVuSans-32"/><use transform="translate(283.300781 .015625)" xlink:href="#DejaVuSans-2c"/><use transform="translate(334.570312 .015625)" xlink:href="#DejaVuSans-35"/><use transform="translate(398.193359 .015625)" xlink:href="#DejaVuSans-30"/><use transform="translate(461.816406 .015625)" xlink:href="#DejaVuSans-30"/><use transform="translate(525.439453 .015625)" xlink:href="#DejaVuSans-29"/></g></g></g><g id="xtick_17"><use x="667.387013" xlink:href="#m997b4f59f6" y="300.6" stroke="#000" stroke-width=".8" id="line2d_17"/><g id="text_17"><g transform="matrix(.08 0 0 -.08 659.133263 313.67875)"><use xlink:href="#DejaVuSans-6f"/><use x="61.181641" xlink:href="#DejaVuSans-77"/><use x="142.96875" xlink:href="#DejaVuSans-6e"/></g><g transform="matrix(.08 0 0 -.08 651.115138 322.637)"><use xlink:href="#DejaVuSans-6d"/><use x="97.412109" xlink:href="#DejaVuSans-6f"/><use x="158.59375" xlink:href="#DejaVuSans-64"/><use x="222.070312" xlink:href="#DejaVuSans-65"/><use x="283.59375" xlink:href="#DejaVuSans-6c"/><use x="311.376953" xlink:href="#DejaVuSans-20"/><use x="343.164062" xlink:href="#DejaVuSans-33"/></g><g transform="matrix(.08 0 0 -.08 649.387013 331.59525)"><use transform="translate(0 .015625)" xlink:href="#DejaVuSans-28"/><use transform="translate(39.013672 .015625)" xlink:href="#DejaVuSans-Oblique-6b"/><use transform="translate(116.40625 .015625)" xlink:href="#DejaVuSans-3d"/><use transform="translate(219.677734 .015625)" xlink:href="#DejaVuSans-32"/><use transform="translate(283.300781 .015625)" xlink:href="#DejaVuSans-35"/><use transform="translate(346.923828 .015625)" xlink:href="#DejaVuSans-36"/><use transform="translate(410.546875 .015625)" xlink:href="#DejaVuSans-29"/></g></g></g><g transform="matrix(.1 0 0 -.1 351.003125 344.857438)" id="text_18"><defs><path d="M1159 525v-1856H581v4831h578v-531q182 312 458 463 277 152 661 152 638 0 1036-506 399-506 399-1331T3314 415Q2916-91 2278-91q-384 0-661 152-276 152-458 464zm1957 1222q0 634-261 995t-717 361q-457 0-718-361t-261-995q0-634 261-995t718-361q456 0 717 361t261 995z" id="DejaVuSans-70" transform="scale(.01563)"/><path d="M2631 2963q-97 56-211 82-114 27-251 27-488 0-749-317t-261-911V0H581v3500h578v-544q182 319 472 473 291 155 707 155 59 0 131-8 72-7 159-23l3-590z" id="DejaVuSans-72" transform="scale(.01563)"/><path d="M3122 3366v-538q-244 135-489 202t-495 67q-560 0-870-355-309-354-309-995t309-996q310-354 870-354 250 0 495 67t489 202V134Q2881 22 2623-34q-257-57-548-57-791 0-1257 497-465 497-465 1341 0 856 470 1346 471 491 1290 491 265 0 518-55 253-54 491-163z" id="DejaVuSans-63" transform="scale(.01563)"/><path d="M3513 2113V0h-575v2094q0 497-194 743-194 247-581 247-466 0-735-297-269-296-269-809V0H581v4863h578V2956q207 316 486 472 280 156 646 156 603 0 912-373 310-373 310-1098z" id="DejaVuSans-68" transform="scale(.01563)"/></defs><use xlink:href="#DejaVuSans-61"/><use x="61.279297" xlink:href="#DejaVuSans-70"/><use x="124.755859" xlink:href="#DejaVuSans-70"/><use x="188.232422" xlink:href="#DejaVuSans-72"/><use x="227.095703" xlink:href="#DejaVuSans-6f"/><use x="288.277344" xlink:href="#DejaVuSans-61"/><use x="349.556641" xlink:href="#DejaVuSans-63"/><use x="404.537109" xlink:href="#DejaVuSans-68"/></g></g><g id="matplotlib.axis_2"><g id="ytick_1"><g id="line2d_18"><defs><path d="M0 0h-3.5" id="m7d4b78ae92" stroke="#000" stroke-width=".8"/></defs><use x="36" xlink:href="#m7d4b78ae92" y="300.6" stroke="#000" stroke-width=".8"/></g><use xlink:href="#DejaVuSans-30" transform="matrix(.1 0 0 -.1 22.6375 304.399219)" id="text_19"/></g><g id="ytick_2"><use x="36" xlink:href="#m7d4b78ae92" y="248.790476" stroke="#000" stroke-width=".8" id="line2d_19"/><use xlink:href="#DejaVuSans-31" transform="matrix(.1 0 0 -.1 22.6375 252.589695)" id="text_20"/></g><g id="ytick_3"><use x="36" xlink:href="#m7d4b78ae92" y="196.980952" stroke="#000" stroke-width=".8" id="line2d_20"/><use xlink:href="#DejaVuSans-32" transform="matrix(.1 0 0 -.1 22.6375 200.780171)" id="text_21"/></g><g id="ytick_4"><use x="36" xlink:href="#m7d4b78ae92" y="145.171429" stroke="#000" stroke-width=".8" id="line2d_21"/><use xlink:href="#DejaVuSans-33" transform="matrix(.1 0 0 -.1 22.6375 148.970647)" id="text_22"/></g><g id="ytick_5"><use x="36" xlink:href="#m7d4b78ae92" y="93.361905" stroke="#000" stroke-width=".8" id="line2d_22"/><use xlink:href="#DejaVuSans-34" transform="matrix(.1 0 0 -.1 22.6375 97.161124)" id="text_23"/></g><g id="ytick_6"><use x="36" xlink:href="#m7d4b78ae92" y="41.552381" stroke="#000" stroke-width=".8" id="line2d_23"/><use xlink:href="#DejaVuSans-35" transform="matrix(.1 0 0 -.1 22.6375 45.3516)" id="text_24"/></g><g transform="matrix(0 -.1 -.1 0 16.557812 229.365313)" id="text_25"><defs><path d="M2906 1791q0 625-258 968-257 344-723 344-462 0-720-344-258-343-258-968 0-622 258-966t720-344q466 0 723 344 258 344 258 966zm575-1357q0-893-397-1329-396-436-1215-436-303 0-572 45t-522 139v559q253-137 500-202 247-66 503-66 566 0 847 295t281 892v285q-178-310-456-463T1784 0Q1141 0 747 490 353 981 353 1791q0 812 394 1302 394 491 1037 491 388 0 666-153t456-462v531h575V434z" id="DejaVuSans-67" transform="scale(.01563)"/><path d="M544 1381v2119h575V1403q0-497 193-746 194-248 582-248 465 0 735 297 271 297 271 810v1984h575V0h-575v538q-209-319-486-474-276-155-642-155-603 0-916 375-312 375-312 1097zm1447 2203z" id="DejaVuSans-75" transform="scale(.01563)"/><path d="M1600 4347q-250 0-422-174-172-173-172-423 0-247 172-417t422-170q250 0 422 170t172 417q0 247-174 422-173 175-420 175zm0 403q200 0 384-77 185-76 319-220 144-140 216-319 72-178 72-384 0-412-289-698t-708-286q-422 0-704 281-281 281-281 703 0 419 287 709 288 291 704 291z" id="DejaVuSans-b0" transform="scale(.01563)"/></defs><use xlink:href="#DejaVuSans-6d"/><use x="97.412109" xlink:href="#DejaVuSans-65"/><use x="158.935547" xlink:href="#DejaVuSans-61"/><use x="220.214844" xlink:href="#DejaVuSans-6e"/><use x="283.59375" xlink:href="#DejaVuSans-20"/><use x="315.380859" xlink:href="#DejaVuSans-61"/><use x="376.660156" xlink:href="#DejaVuSans-6e"/><use x="440.039062" xlink:href="#DejaVuSans-67"/><use x="503.515625" xlink:href="#DejaVuSans-75"/><use x="566.894531" xlink:href="#DejaVuSans-6c"/><use x="594.677734" xlink:href="#DejaVuSans-61"/><use x="655.957031" xlink:href="#DejaVuSans-72"/><use x="697.070312" xlink:href="#DejaVuSans-20"/><use x="728.857422" xlink:href="#DejaVuSans-65"/><use x="790.380859" xlink:href="#DejaVuSans-72"/><use x="829.744141" xlink:href="#DejaVuSans-72"/><use x="868.607422" xlink:href="#DejaVuSans-6f"/><use x="929.789062" xlink:href="#DejaVuSans-72"/><use x="970.902344" xlink:href="#DejaVuSans-20"/><use x="1002.689453" xlink:href="#DejaVuSans-5b"/><use x="1041.703125" xlink:href="#DejaVuSans-64"/><use x="1105.179688" xlink:href="#DejaVuSans-65"/><use x="1166.703125" xlink:href="#DejaVuSans-67"/><use x="1230.179688" xlink:href="#DejaVuSans-72"/><use x="1269.042969" xlink:href="#DejaVuSans-65"/><use x="1330.566406" xlink:href="#DejaVuSans-65"/><use x="1392.089844" xlink:href="#DejaVuSans-20"/><use x="1423.876953" xlink:href="#DejaVuSans-b0"/><use x="1473.876953" xlink:href="#DejaVuSans-5d"/></g></g><path d="M36 300.6V6.84" fill="none" stroke="#000" stroke-linecap="square" stroke-linejoin="miter" stroke-width=".8" id="patch_20"/><path d="M712.8 300.6V6.84" fill="none" stroke="#000" stroke-linecap="square" stroke-linejoin="miter" stroke-width=".8" id="patch_21"/><path d="M36 300.6h676.8" fill="none" stroke="#000" stroke-linecap="square" stroke-linejoin="miter" stroke-width=".8" id="patch_22"/><path d="M36 6.84h676.8" fill="none" stroke="#000" stroke-linecap="square" stroke-linejoin="miter" stroke-width=".8" id="patch_23"/></g></g><defs><clipPath id="pa1b435fa1a"><path d="M36 6.84h676.8V300.6H36z"/></clipPath></defs></svg>